<svg id="google-logo-g-auth" xmlns="http://www.w3.org/2000/svg" viewBox="0 0 512 512"><defs><style>.cls-1{fill:#4285f4;}.cls-2{fill:#34a853;}.cls-3{fill:#fbbc05;}.cls-4{fill:#ea4335;}.cls-5{fill:none;}</style></defs><title>google-logo-g-auth</title><path id="Shape" class="cls-1" d="M501.76,261.82a294.15,294.15,0,0,0-4.65-52.36H256v99H393.77c-5.93,32-24,59.11-51.08,77.27V450h82.73c48.41-44.57,76.33-110.2,76.33-188.16Z"/><path id="Shape-2" data-name="Shape" class="cls-2" d="M256,512c69.12,0,127.07-22.92,169.43-62l-82.73-64.23c-22.92,15.36-52.25,24.44-86.69,24.44-66.68,0-123.11-45-143.24-105.54H27.23V371A255.9,255.9,0,0,0,256,512Z"/><path id="Shape-3" data-name="Shape" class="cls-3" d="M112.76,304.64a151.34,151.34,0,0,1,0-97.28V141H27.23a256.32,256.32,0,0,0,0,229.93l85.53-66.33Z"/><path id="Shape-4" data-name="Shape" class="cls-4" d="M256,101.82c37.59,0,71.33,12.92,97.86,38.28l73.43-73.43C383,25.37,325,0,256,0A255.9,255.9,0,0,0,27.23,141l85.53,66.33C132.89,146.85,189.32,101.82,256,101.82Z"/><path id="Shape-5" data-name="Shape" class="cls-5" d="M0,0H512V512H0Z"/></svg>